/* XPM */
static char *result[] = {
/* columns rows colors chars-per-pixel */
"64 64 12 1 ",
"  c #21170D",
". c #4F2D18",
"X c #806040",
"o c #8C7769",
"O c #AD8352",
"+ c #A5966F",
"@ c #CCB19D",
"# c #EBC08D",
"$ c #E6D2C3",
"% c #FFF1E6",
"& c white",
"* c #2388C5",
/* pixels */
"****************************************************************",
"****************************************************************",
"****************************************************************",
"****************************************************************",
"**************************************************   ***********",
"************************************************* ..  **********",
"************************************************ .. . **********",
"************************************************ . ..  *********",
"*********************************************** X X. . *********",
"*********************************************** .XX ..   *******",
"*********************************************** XX.X. ..   *****",
"*********************************************** X.XX .. ..  ****",
"********************************************** +X+X.XX .. . ****",
"********************************************** +++.XX.XX .. ****",
"********************************************** ..+++.XX ..  ****",
"************************************       **   ..+XXX .   *****",
"***********************************  . . . *  .X .++     *******",
"***********************************  . . .  oo .     ***********",
"********************************** . . .  ooooo   **************",
"***********************          * . .  oo%%%oo  ***************",
"**********************  . . . .  * .  oo%%%$%o  ****************",
"**********************  . . . . **  oo%%%$$$%o *****************",
"********************* . . . . .   oo%%%$$$$%%o  ****************",
"***************  **** . . . .   oo%%%$$$$$$%o  . ***************",
"*************  .  *** . . .   oo%%%$$@@$$$%%o XX ***************",
"************ . .  *** . .   oo%%%$$@@@$@$$%o  .. ***************",
"***********  . . . ** .   oo%%%$%@$@@$@@$%%o XXX ***************",
"********** . . . . ** . oo%%%$$@%@$@$@@@$%o  ..  ***************",
"********** . . . . **  o%%%$$$@@$@$$@@@$%%o XXX ****************",
"*********  . . . . * oo%%$$$@@@@%@$@%$%%%o  ... ****************",
"*********  . . . .  o%%%$$$@@@@@@$@@@@@%%o XXX  ****************",
"*********  . . .  oo%%$$$@$@@@@@$@@@@@$%o      *****************",
"*********  . . . o%%%$$$@@$@@@@$$$$@$$$%o **********************",
"*********  . .  o%%$$$@$@@@$@@$$@@@@@$%%o **********************",
"*********  . . o%%$$$@@$@@@$@%%@@@@@@$%o .  ********************",
"********** .  o%$$$@$@@$@@@@%%@$$@@@$%%o XX ********************",
"********** . o%$$$@@$@@@$@@%%@@@@$$$$%o ... ********************",
"**********  o$$$$@@@@$@@$@%%@%%@@@@$%%o XX  ********************",
"**********  ooo@@@@@@$@@@%%@@@@%%@$%%o ... *********************",
"**********    oooo@@@@$@$$@@@@@@@$$%o XXXX *********************",
"********* ...    ooo@@$$$@@@@@@@$$%%o .... *********************",
"******** .......   oo$$$@$@@@@@$$%%o XXXX  *********************",
"******** ..XX..XXX  oo$@@@%@@@$$%%o ..... **********************",
"******* ...XXXXXXXX  o@@@@@%%@$%%o XXXXXX **********************",
"******* ..X..X++++XX oo@@@@@@$$%o   ...   **********************",
"****** ...X..+XX+++X  o@@@@@$$%o  *     ************************",
"****** ..XXX++++X+++X o@@@@$$%o  *******************************",
"****** ..##.X++++X++X o@@@$$%o  ********************************",
"***** ..#O&#X+X++X++X.o@@$$$o  *********************************",
"***** ..#OO#X++++X++X o@$$$o  **********************************",
"***** .X.##.X++++X+XX.o@$$o  ***********************************",
"**** ..XX..X++++X++XX.o@$o ..   ********************************",
"**** ..XXX++++++X+XX.oooo .XXXX ********************************",
"**** .XXX++++++X+XXX.ooo   ..... *******************************",
"**** .XX++++XXXXXXX.oo   *  XXXX *******************************",
"**** .XX++++++......   ****  .... ******************************",
"**** ..X+++  ..XX.   *******  XXXX *****************************",
"****  ...  ..+XX   **********   ... ****************************",
"*****     ++++   **************   XX ***************************",
"*********      ******************   ****************************",
"*************    ***********************************************",
"****************************************************************",
"****************************************************************",
"****************************************************************"
};
