/* XPM */
static char *result[] = {
/* columns rows colors chars-per-pixel */
"64 64 119 2 ",
"   c #050000",
".  c #0A0505",
"X  c #0D0909",
"o  c #110C0D",
"O  c #0C1315",
"+  c #10191C",
"@  c #231F1F",
"#  c #111C20",
"$  c #231F20",
"%  c #0C252C",
"&  c #09323C",
"*  c #242122",
"=  c #282526",
"-  c #2A2728",
";  c #20282B",
":  c #2C292A",
">  c #312D2F",
",  c #332F31",
"<  c #363334",
"1  c #393737",
"2  c #3A3738",
"3  c #30383D",
"4  c #3C393A",
"5  c #403D3E",
"6  c #0A5667",
"7  c #095F72",
"8  c #086074",
"9  c #444243",
"0  c #494748",
"q  c #4D4A4C",
"w  c #514F4F",
"e  c #504F50",
"r  c #545253",
"t  c #585657",
"y  c #595758",
"u  c #5D5B5C",
"i  c #605E5F",
"p  c #475860",
"a  c #615F61",
"s  c #656365",
"d  c #676769",
"f  c #6C6A6B",
"g  c #6F6F70",
"h  c #747374",
"j  c #787777",
"k  c #767678",
"l  c #797778",
"z  c #7A7A7C",
"x  c #077088",
"c  c #077E99",
"v  c #7D7E80",
"b  c #807F80",
"n  c #0689A6",
"m  c #0989A7",
"M  c #0E8CA9",
"N  c #65818F",
"B  c #7FA6B7",
"V  c #02A7CC",
"C  c #01ADD4",
"Z  c #00B0D8",
"A  c #1CB6DA",
"S  c #1EB8DE",
"D  c #42BEDB",
"F  c #3CC0DF",
"G  c #70C7DD",
"H  c #5ECBEA",
"J  c #73CCE1",
"K  c #828284",
"L  c #848688",
"P  c #888788",
"I  c #86898B",
"U  c #8A898A",
"Y  c #8D8E91",
"T  c #8E9194",
"R  c #909295",
"E  c #999797",
"W  c #949699",
"Q  c #989798",
"!  c #96989B",
"~  c #9A9B9D",
"^  c #9C9EA1",
"/  c #A09FA0",
"(  c #9EA0A2",
")  c #A2A3A5",
"_  c #A5A7A8",
"`  c #A7A9AB",
"'  c #AAACAD",
"]  c #ACAEB0",
"[  c #B0AFB0",
"{  c #AFB0B2",
"}  c #B2B4B5",
"|  c #B5B7B8",
" . c #B7B8BA",
".. c #BABCBD",
"X. c #BDBFC1",
"o. c #84C2D3",
"O. c #8FC3D1",
"+. c #BFC0C2",
"@. c #80D3EF",
"#. c #8BD3EE",
"$. c #C2C4C5",
"%. c #C5C7C8",
"&. c #C7C9CA",
"*. c #C9CBCC",
"=. c #CDCFD0",
"-. c #CFD0D1",
";. c #D3D4D5",
":. c #D6D7D8",
">. c #D5D8DA",
",. c #DBDCDD",
"<. c #DFE0E1",
"1. c #E3E4E5",
"2. c #E6E7E8",
"3. c #E7E8E9",
"4. c #EBECEC",
"5. c #F4F4F5",
"6. c #F7F7F8",
"7. c #FF0000",
"8. c #2388C5",
/* pixels */
"8.8.8.8.8.8.8.8.8.8.8.8.8.8.8.8.8.8.8.8.8.8.8.8.8.8.8.8.8.8.8.8.8.8.8.8.8.8.8.8.8.8.8.8.8.8.8.8.8.8.8.8.8.8.8.8.8.8.8.8.8.8.8.8.",
"8.8.8.8.8.8.8.8.8.8.8.8.8.8.8.8.8.8.8.8.8.8.8.8.8.8.8.8.8.8.8.8.8.8.8.8.8.8.8.8.8.8.8.8.8.8.8.8.8.8.8.8.8.8.8.8.8.8.8.8.8.8.8.8.",
"8.8.8.8.8.8.8.8.8.8.8.8.8.8.8.8.8.8.8.8.8.8.8.8.8.8.8.8.8.8.8.8.8.8.8.8.8.8.8.8.8.8.8.8.8.8.8.8.8.8.8.8.8.8.8.8.8.8.8.8.8.8.8.8.",
"8.8.8.8.8.8.8.8.8.8.8.8.8.8.8.8.8.8.8.8.8.8.8.8.8.8.8.8.8.8.8.8.8.8.8.8.8.8.8.8.8.8.8.8.8.8.8.8.8.8.8.8.8.8.8.8.8.8.8.8.8.8.8.8.",
"8.8.8.8.8.8.8.8.8.8.8.8.8.8.8.8.8.8.8.8.8.8.8.8.8.8.8.8.8.8.8.8.8.8.8.8.8.8.8.8.8.8.8.8.8.8.8.8.8.8.8.8.8.8.8.8.8.8.8.8.8.8.8.8.",
"8.8.8.8.8.8.8.8.8.8.8.8.8.8.8.8.8.8.8.8.8.8.8.8.8.8.8.8.8.8.8.8.8.8.8.8.8.8.8.8.8.8.8.8.8.8.8.8.8.8.8.8.8.8.8.8.8.8.8.8.8.8.8.8.",
"8.8.8.8.8.8.8.8.8.8.8.8.8.8.8.8.8.8.8.8.8.8.8.8.8.8.8.8.8.8.8.8.8.8.8.8.8.8.8.8.8.8.8.8.8.8.8.8.8.8.8.8.8.8.8.8.8.8.8.8.8.8.8.8.",
"8.8.8.8.8.8.8.8.8.8.8.8.8.8.8.8.8.8.8.8.8.8.8.8.8.8.8.8.8.8.8.8.8.8.8.8.8.8.8.8.8.8.8.8.8.8.8.8.8.8.8.8.8.8.8.8.8.8.8.8.8.8.8.8.",
"8.8.8.8.8.8.8.8.8.8.8.8.8.8.8.8.8.8.8.8.8.8.8.8.8.8.8.8.8.8.8.8.8.8.8.8.8.8.8.8.8.8.8.8.8.8.8.8.8.8.8.8.8.8.8.8.8.8.8.8.8.8.8.8.",
"8.8.8.8.8.8.8.8.8.8.8.8.8.8.8.8.8.8.8.8.8.8.8.8.8.8.8.8.8.8.8.8.8.8.8.8.8.8.8.8.8.8.8.8.8.8.8.8.8.8.8.8.8.8.8.8.8.8.8.8.8.8.8.8.",
"8.8.8.8.8.8.8.8.8.8.8.8.8.8.8.8.8.8.8.8.8.8.8.8.8.8.8.8.8.8.8.8.8.8.8.8.8.8.8.8.8.8.8.8.8.8.8.8.8.8.8.8.8.8.8.8.8.8.8.8.8.8.8.8.",
"8.8.8.8.8.8.8.8.8.8.8.8.8.8.8.8.8.8.8.8.8.8.8.8.8.$ $ $ 8.8.8.8.8.8.8.8.8.8.8.8.$ $ @ 8.8.8.8.8.8.8.8.8.8.8.8.8.8.8.8.8.8.8.8.8.",
"8.8.8.8.8.8.8.8.8.8.8.8.8.8.8.8.8.8.8.8.8.8.8.* * h ..} y * * : 0 s f s r 2 = * 1 / t @ $ 8.8.8.8.8.8.8.8.8.8.8.8.8.8.8.8.8.8.8.",
"8.8.8.8.8.8.8.8.8.8.8.8.8.8.8.8.8.8.8.8.8.8.* > 1.:.*.;.:.1.[ : r *.*.*.*.*.*.*.%.! *.,.r @ 8.8.8.8.8.8.8.8.8.8.8.8.8.8.8.8.8.8.",
"8.8.8.8.8.8.8.8.8.8.8.8.8.8.8.8.8.8.8.8.8.8.* ,.*.*.*.*.*.*.*.:. .= j *.*.*.*.*.*.*.*.*.*.} $ 8.8.8.8.8.8.8.8.8.8.8.8.8.8.8.8.8.",
"8.8.8.8.8.8.8.8.8.8.8.8.8.8.8.8.8.8.8.8.$ < $.*.*.} Q ( ..*.*.*.*.:.P > $.*.*.*.*.*.*.*.*.*.,.5 $ 8.8.8.8.8.8.8.8.8.8.8.8.8.8.8.",
"8.8.8.8.8.8.8.8.8.8.8.8.8.8.8.8.8.8.8.$ i *.*.+.*   6 o.<   X 9 ' *.*.:.< | *.*.*.*.*.*.*.*.*.:.[ @ 8.8.8.8.8.8.8.8.8.8.8.8.8.8.",
"8.8.8.8.8.8.8.8.8.8.8.8.8.8.8.8.8.$ $ s *.$.R R ; J 7.7.E           q $.-.j  .*.*.*.*.*.*.*.*.*.*.1.: * 8.8.8.8.8.8.8.8.8.8.8.8.",
"8.8.8.8.8.8.8.8.8.8.8.8.8.8.8.@ $ = 9 *.| R R + F 7.7.7.7.f             2 &. .*.*.*.*.*.*.*.*.*.*.*.1.1 $ 8.8.8.8.8.8.8.8.8.8.8.",
"8.8.8.8.8.8.8.8.8.8.8.8.8.8.* 9 1.* *. .T R : C >.7.7.7.7.*.              o j *.*.*.*.*.*.*.*.*. .^ ) <.< * 8.8.8.8.8.8.8.8.8.8.",
"8.8.8.8.8.8.8.8.8.8.8.8.8.@ I 3.b Q %.R R Y & D @ 7.7.7.7.r               N 8 = &.*.*.*.*.*.s P -.1.<.-.j @ 8.8.8.8.8.8.8.8.8.8.",
"8.8.8.8.8.8.8.8.8.8.8.8.$ R <.k = *.! R R d c o.  5 2.5.a                 B C s q &.*.*.` *.4.4.4.4.4.<.@ 8.8.8.8.8.8.8.8.8.8.8.",
"8.8.8.8.8.8.8.8.8.8.8.@ i <.9 = P ` e e R i m O.                          #.n L *.*.*.&.4.4.4.4.4.4.4.: 8.8.8.8.8.8.8.8.8.8.8.8.",
"8.8.8.8.8.8.8.8.8.8.8.= 3.w 0 k *. .*.&.R K 7 G                         3 S % ) *.*.:.4.4.4.4.4.4.4.q @ 8.8.8.8.8.8.8.8.8.8.8.8.",
"8.8.8.8.8.8.8.8.8.8.$ } U q T s *.*.K *.^ T O A =                     . J C 9 $.*.*.4.4.4.4.4.4.4.s @ 8.8.8.8.8.8.8.8.8.8.8.8.8.",
"8.8.8.8.8.8.8.8.8.8.- :.> R R I ..*.L | *.f X o X .                 X #.Z + Q *.*.4.4.5.4.4.4.4.f $ 8.8.8.8.8.8.8.8.8.8.8.8.8.8.",
"8.8.8.8.8.8.8.8.8.@ ) a Y T R | ' *.} ) *.=.*.=.-.;.,.1...r .     p H Z % Y %.*.4.4.4.4.4.4.4.t * 8.8.8.8.8.8.8.8.8.8.8.8.8.8.8.",
"8.8.8.8.8.8.8.8.8.$ ,.r R R R +.) *.&.h R *.*.*.*.*.*.*.*.*.;.&.2 M x 2 R $.*.4.4.4.4.4.4.1., * 8.8.8.8.8.8.8.8.8.8.8.8.8.8.8.8.",
"8.8.8.8.8.8.8.8.8.5 R Y R R R ` W *.*.2 1.Q ..*.*.*.*.*.*.*.*.*.*.*.e ] *.;.4.4.4.4.4.4.) $ 8.8.8.8.8.8.8.8.8.8.8.8.8.8.8.8.8.8.",
"8.8.8.8.8.8.8.8.$ ~ t R R R R P R *.*.) } 2.-.f *.*.*.*.*.*.*.*.*.*.*.*.1.4.4.4.4.4.*.> @ 8.8.8.8.8.8.8.8.8.8.8.8.8.8.8.8.8.8.8.",
"8.8.8.8.8.8.8.8.$ ;.L R T R R u !  .*.*.< 4.;.| ) f +.*.*.*.*.*.*.=.1.4.4.4.4.4.' > $ 8.8.8.8.8.8.8.8.8.8.8.8.8.8.8.8.8.8.8.8.8.",
"8.8.8.8.8.8.8.8.* ..R R ( ' _ : ] W *.*.) ` } } 4.] $.y i ` >.2.4.4.4.4.>.W 4 $ $ 8.8.8.8.8.@ $ 8.8.8.8.8.8.8.8.8.8.8.8.8.8.8.8.",
"8.8.8.8.8.8.8.8.: ] ..| f 9 4 * X.W ] *.*.9 X.1.6.` ,.3.I :.^ u , : - - 5 k X.8.8.8.8.8.8.$ _ * 8.8.8.8.8.8.8.8.8.8.8.8.8.8.8.8.",
"8.8.8.8.8.8.8.8.9 +.> $ * 8.8.$ e ^ R X.*.*.4 7.1.X.-.6.$.4.4.` ` 4.4.! %.7.5.8.8.8.8.8.$ X.l @ 8.8.8.8.8.8.8.8.8.8.8.8.8.8.8.8.",
"8.8.8.8.8.8.8.8.u * @ 8.8.8.8.8.$ ` R Y W X. .u } X.} 6.5.7.7.) $.7.7.( ' 7.,.8.8.8.8.$ ` *.k * 8.8.8.8.8.8.8.8.8.8.8.8.8.8.8.8.",
"8.8.8.8.8.8.8.8.$ 8.8.8.8.8.8.8.$ $ 2 X.R R _ ` y ..,.5.7.=.7...4.7.7.] 5.5...*.k 4 , t *.} v 8.8.8.8.8.8.8.8.8.8.8.8.8.8.8.8.8.",
"8.8.8.8.8.8.8.8.8.8.8.8.8.8.8.8.$ - *.W W Y R ^ ' 5 7.>.7.X.7.*.7.,.7.+.7.%.W *.=.;.;.*.*.L e 8.8.8.8.8.8.8.8.8.8.8.8.8.8.8.8.8.",
"8.8.8.8.8.8.8.8.8.8.8.8.8.8.8.8.$ $.^ Y R R R R ! X.: Q 6.7.4.=.7.' 7.,.7.] Y *.*.*.*.*._ R = 8.8.$ $ 8.8.8.8.8.8.8.8.8.8.8.8.8.",
"8.8.8.8.8.8.8.8.8.8.8.8.8.8.8.@ R } Y W R R R R R ^ &.4 f 7. .&.7.4.6.5.7.+.| 4 $.&.} W U , 8.8.8._ 8.8.8.8.8.8.8.8.8.8.8.8.8.8.",
"8.8.8.8.8.8.8.8.8.8.8.8.8.8.$ < %.R W Y W R R R T R ^ *.4 * 0 Y 6.7.] 7.5.z * * K R Y 0 @ 8.8.8.~ y 8.8.8.8.8.8.8.8.8.8.8.8.8.8.",
"8.8.8.8.8.8.8.8.8.8.8.8.8.8.*  .! R T T Y v e h } ! R W %.f K 2 $ $ $ $ = a ;.e q : $ 8.8.8.8.! *.* 8.8.8.8.8.8.8.8.8.8.8.8.8.8.",
"8.8.8.8.8.8.8.8.8.8.8.8.8.8.4 ..R W Y e K &.$.) K h u T R _  .y :.4.4.4.4.4.4.4.h * 8.8.8.@ ` *.*.* 8.8.8.8.8.8.8.8.8.8.8.8.8.8.",
"8.8.8.8.8.8.8.8.8.8.8.8.8.$ } R R e ) ] q $ $ 8.* = } ~ T R W ( ' y _ 3.4.4.4.4.4.:.0 $ * +.*.*.*.@ 8.8.8.8.8.8.8.8.8.8.8.8.8.8.",
"8.8.8.8.8.8.8.8.8.8.8.8.8.= X.v K Q - $ 8.8.8.8.8.8.$ 1 ( ) W R R R ! Y s s Q $.:.1.4.4.,.*.+. .' = 8.8.8.8.8.8.8.8.8.8.8.8.8.8.",
"8.8.8.8.8.8.8.8.8.8.8.8.8.h g } > * 8.8.8.8.8.8.8.8.8.8.* $ 2 l ` ' ~ T T W W ~ ` } ! ~ { ~ R R R } * 8.8.8.8.8.8.8.8.8.8.8.8.8.",
"8.8.8.8.8.8.8.8.8.8.8.8.@ k z $ 8.8.8.8.8.8.8.8.8.8.8.8.8.8.8.8.@ $ _ ) T k : = * 8.8.8.$ : P  .Q R l 8.8.8.8.8.8.8.8.8.8.8.8.8.",
"8.8.8.8.8.8.8.8.8.8.8.8.* q $ 8.8.8.8.8.8.8.8.8.8.8.8.8.8.8.8.8.8.8.@ a +.U 8.8.8.8.8.8.8.8.8.* s .._ 4 8.8.8.8.8.8.8.8.8.8.8.8.",
"8.8.8.8.8.8.8.8.8.8.8.8.$ 8.8.8.8.8.8.8.8.8.8.8.8.8.8.8.8.8.8.8.8.8.8.8.* < : 8.8.8.8.8.8.8.8.8.8.* y %.: 8.8.8.8.8.8.8.8.8.8.8.",
"8.8.8.8.8.8.8.8.8.8.8.8.8.8.8.8.8.8.8.8.8.8.8.8.8.8.8.8.8.8.8.8.8.8.8.8.8.8.8.8.8.8.8.8.8.8.8.8.8.8.8.8.s > 8.8.8.8.8.8.8.8.8.8.",
"8.8.8.8.8.8.8.8.8.8.8.8.8.8.8.8.8.8.8.8.8.8.8.8.8.8.8.8.8.8.8.8.8.8.8.8.8.8.8.8.8.8.8.8.8.8.8.8.8.8.8.8.8.8.$ 8.8.8.8.8.8.8.8.8.",
"8.8.8.8.8.8.8.8.8.8.8.8.8.8.8.8.8.8.8.8.8.8.8.8.8.8.8.8.8.8.8.8.8.8.8.8.8.8.8.8.8.8.8.8.8.8.8.8.8.8.8.8.8.8.8.8.8.8.8.8.8.8.8.8.",
"8.8.8.8.8.8.8.8.8.8.8.8.8.8.8.8.8.8.8.8.8.8.8.8.8.8.8.8.8.8.8.8.8.8.8.8.8.8.8.8.8.8.8.8.8.8.8.8.8.8.8.8.8.8.8.8.8.8.8.8.8.8.8.8.",
"8.8.8.8.8.8.8.8.8.8.8.8.8.8.8.8.8.8.8.8.8.8.8.8.8.8.8.8.8.8.8.8.8.8.8.8.8.8.8.8.8.8.8.8.8.8.8.8.8.8.8.8.8.8.8.8.8.8.8.8.8.8.8.8.",
"8.8.8.8.8.8.8.8.8.8.8.8.8.8.8.8.8.8.8.8.8.8.8.8.8.8.8.8.8.8.8.8.8.8.8.8.8.8.8.8.8.8.8.8.8.8.8.8.8.8.8.8.8.8.8.8.8.8.8.8.8.8.8.8.",
"8.8.8.8.8.8.8.8.8.8.8.8.8.8.8.8.8.8.8.8.8.8.8.8.8.8.8.8.8.8.8.8.8.8.8.8.8.8.8.8.8.8.8.8.8.8.8.8.8.8.8.8.8.8.8.8.8.8.8.8.8.8.8.8.",
"8.8.8.8.8.8.8.8.8.8.8.8.8.8.8.8.8.8.8.8.8.8.8.8.8.8.8.8.8.8.8.8.8.8.8.8.8.8.8.8.8.8.8.8.8.8.8.8.8.8.8.8.8.8.8.8.8.8.8.8.8.8.8.8.",
"8.8.8.8.8.8.8.8.8.8.8.8.8.8.8.8.8.8.8.8.8.8.8.8.8.8.8.8.8.8.8.8.8.8.8.8.8.8.8.8.8.8.8.8.8.8.8.8.8.8.8.8.8.8.8.8.8.8.8.8.8.8.8.8.",
"8.8.8.8.8.8.8.8.8.8.8.8.8.8.8.8.8.8.8.8.8.8.8.8.8.8.8.8.8.8.8.8.8.8.8.8.8.8.8.8.8.8.8.8.8.8.8.8.8.8.8.8.8.8.8.8.8.8.8.8.8.8.8.8.",
"8.8.8.8.8.8.8.8.8.8.8.8.8.8.8.8.8.8.8.8.8.8.8.8.8.8.8.8.8.8.8.8.8.8.8.8.8.8.8.8.8.8.8.8.8.8.8.8.8.8.8.8.8.8.8.8.8.8.8.8.8.8.8.8.",
"8.8.8.8.8.8.8.8.8.8.8.8.8.8.8.8.8.8.8.8.8.8.8.8.8.8.8.8.8.8.8.8.8.8.8.8.8.8.8.8.8.8.8.8.8.8.8.8.8.8.8.8.8.8.8.8.8.8.8.8.8.8.8.8.",
"8.8.8.8.8.8.8.8.8.8.8.8.8.8.8.8.8.8.8.8.8.8.8.8.8.8.8.8.8.8.8.8.8.8.8.8.8.8.8.8.8.8.8.8.8.8.8.8.8.8.8.8.8.8.8.8.8.8.8.8.8.8.8.8.",
"8.8.8.8.8.8.8.8.8.8.8.8.8.8.8.8.8.8.8.8.8.8.8.8.8.8.8.8.8.8.8.8.8.8.8.8.8.8.8.8.8.8.8.8.8.8.8.8.8.8.8.8.8.8.8.8.8.8.8.8.8.8.8.8.",
"8.8.8.8.8.8.8.8.8.8.8.8.8.8.8.8.8.8.8.8.8.8.8.8.8.8.8.8.8.8.8.8.8.8.8.8.8.8.8.8.8.8.8.8.8.8.8.8.8.8.8.8.8.8.8.8.8.8.8.8.8.8.8.8.",
"8.8.8.8.8.8.8.8.8.8.8.8.8.8.8.8.8.8.8.8.8.8.8.8.8.8.8.8.8.8.8.8.8.8.8.8.8.8.8.8.8.8.8.8.8.8.8.8.8.8.8.8.8.8.8.8.8.8.8.8.8.8.8.8."
};
