/* XPM */
static char *result[] = {
/* columns rows colors chars-per-pixel */
"64 64 162 2 ",
"   c #080404",
".  c #0A0709",
"X  c #090A10",
"o  c #1E0E2A",
"O  c #0B1322",
"+  c #1F102C",
"@  c #0D1F38",
"#  c #681015",
"$  c #681119",
"%  c #78151A",
"&  c #681424",
"*  c #1C4E28",
"=  c #21552A",
"-  c #255828",
";  c #295E2A",
":  c #3F7C37",
">  c #0F2342",
",  c #102E56",
"<  c #11315B",
"1  c #2F2041",
"2  c #352145",
"3  c #272852",
"4  c #262D58",
"5  c #262750",
"6  c #263B55",
"7  c #113560",
"8  c #641D4C",
"9  c #43214E",
"0  c #522358",
"q  c #63225C",
"w  c #622362",
"e  c #1C5558",
"r  c #254C57",
"t  c #10416F",
"y  c #114673",
"u  c #194674",
"i  c #124A7A",
"p  c #154B7A",
"a  c #2A526A",
"s  c #2E756C",
"d  c #296879",
"f  c #83191E",
"g  c #891A1F",
"h  c #891B20",
"j  c #8E2226",
"k  c #BC461E",
"l  c #B64421",
"z  c #BA4E21",
"x  c #DA4E11",
"c  c #D34C14",
"v  c #DD5313",
"b  c #CA4A18",
"n  c #E15A16",
"m  c #ED6E1D",
"M  c #E66319",
"N  c #EA7419",
"B  c #EA791A",
"V  c #C46722",
"C  c #9A0E77",
"Z  c #A51677",
"A  c #B31F77",
"S  c #B91E72",
"D  c #D41958",
"F  c #E5174E",
"G  c #E31B51",
"H  c #E7265A",
"J  c #C71C68",
"K  c #E73768",
"L  c #AD4B4C",
"P  c #BD6160",
"I  c #E84976",
"U  c #E84975",
"Y  c #EA577D",
"T  c #669931",
"R  c #6C9E30",
"E  c #4DA036",
"W  c #53A334",
"Q  c #5AA732",
"!  c #79B728",
"~  c #72A230",
"^  c #89BF27",
"/  c #EF801B",
"(  c #F0841C",
")  c #F18D1C",
"_  c #F49F1B",
"`  c #F2921C",
"'  c #E4A21F",
"]  c #F5A31C",
"[  c #F3AB1E",
"{  c #F4B71F",
"}  c #D48D22",
"|  c #CEA222",
" . c #D8A220",
".. c #F0BB21",
"X. c #E4B423",
"o. c #8DC127",
"O. c #98C726",
"+. c #9DC929",
"@. c #A3CB2B",
"#. c #ABCE2F",
"$. c #AECF30",
"%. c #B1D031",
"&. c #C9DA39",
"*. c #C7D938",
"=. c #F4C420",
"-. c #F4C728",
";. c #F3D924",
":. c #F2D524",
">. c #F5CA3F",
",. c #F5C835",
"<. c #D4817D",
"1. c #EDD143",
"2. c #F5D54A",
"3. c #F4DE4F",
"4. c #EFEB55",
"5. c #F1EC57",
"6. c #1A5380",
"7. c #155A8A",
"8. c #1C5C8C",
"9. c #165484",
"0. c #1D5F90",
"q. c #165F92",
"w. c #3C4C8C",
"e. c #35508D",
"r. c #1D618B",
"t. c #166496",
"y. c #186595",
"u. c #156D9A",
"i. c #186598",
"p. c #216385",
"a. c #30738A",
"s. c #2279A8",
"d. c #337CA6",
"f. c #46488C",
"g. c #EC6985",
"h. c #2588B6",
"j. c #258AB7",
"k. c #2493BE",
"l. c #3E85AB",
"z. c #5C9EBB",
"x. c #239CC4",
"c. c #1FAACB",
"v. c #21A7C9",
"b. c #21B5D4",
"n. c #2AB7D2",
"m. c #34BAD1",
"M. c #3EBDD0",
"N. c #46BCCC",
"B. c #7AB8CB",
"V. c #59C0C7",
"C. c #5BC1C8",
"Z. c #67C5CC",
"A. c #78C9D1",
"S. c #F08B95",
"D. c #F29D9D",
"F. c #E69993",
"G. c #F4ACA4",
"H. c #F0A7A0",
"J. c #90CAD7",
"K. c #9ED6DE",
"L. c #92D2DA",
"P. c #2388C5",
/* pixels */
"P.P.P.P.P.P.P.P.P.P.P.P.P.P.P.P.P.P.P.P.P.P.P.P.P.P.P.P.P.P.P.P.P.P.P.P.P.P.P.P.P.P.P.P.P.P.P.P.P.P.P.P.P.P.P.P.P.P.P.P.P.P.P.P.",
"P.P.P.P.P.P.P.P.P.P.P.P.P.P.P.P.P.P.P.P.P.P.P.P.P.P.P.P.P.P.P.P.P.P.P.P.P.P.P.P.P.P.P.P.P.P.P.P.P.P.P.P.P.P.P.P.P.P.P.P.P.P.P.P.",
"P.P.P.P.P.P.P.P.P.P.P.P.P.P.P.P.P.P.P.P.P.P.P.P.P.P.P.P.P.P.P.P.P.P.P.P.P.P.P.P.P.P.P.P.P.P.P.P.P.P.P.P.P.P.P.P.P.P.P.P.P.P.P.P.",
"P.P.P.P.P.P.P.P.P.P.P.P.P.P.P.P.P.P.P.P.P.P.P.P.P.P.P.P.P.P.P.P.P.P.P.P.P.P.P.P.P.P.P.P.P.P.P.P.P.P.P.P.P.P.P.P.P.P.P.P.P.P.P.P.",
"P.P.P.P.P.P.P.P.P.P.P.P.P.P.P.P.P.P.P.P.P.P.P.P.P.P.P.P.P.P.P.P.P.P.P.P.P.P.P.P.P.P.P.P.P.P.P.P.P.P.P.P.P.P.P.P.P.P.P.P.P.P.P.P.",
"P.P.P.P.P.P.P.P.P.P.P.P.P.P.P.P.P.P.P.P.P.P.P.P.P.P.P.P.P.P.P.P.P.P.P.P.P.P.P.P.P.P.P.P.P.P.P.P.P.P.P.P.P.P.P.P.P.P.P.P.P.P.P.P.",
"P.P.P.P.P.P.P.P.P.P.P.P.P.P.P.P.P.P.P.P.P.P.P.P.P.P.P.P.P.P.P.P.P.P.P.P.P.P.P.P.P.P.P.P.P.P.P.P.P.P.P.P.P.P.P.P.P.P.P.P.P.P.P.P.",
"P.P.P.P.P.P.P.P.P.P.P.P.P.P.P.P.&.5.5.5.5.5.5.5.5.3.2.=.=.=.=.=.=.=.=.=...( ` ] _ _ ] _ _ _ _ ] :.P.P.P.P.P.P.P.P.P.P.P.P.P.P.P.",
"P.P.P.P.P.P.P.P.P.P.P.P.P.P.P.P.&.&.5.5.5.5.5.5.3.2.2.2.-.=.=.=.=.=.=.[ B ( ( ` _ _ _ _ _ _ ] ;.;.P.P.P.P.P.P.P.P.P.P.P.P.P.P.P.",
"P.P.P.P.P.P.P.P.P.P.P.P.P.P.P.P.&.&.&.5.5.5.5.3.2.2.2.2.2.,.=.=.=.=._ B ( ( B ( ( _ _ _ ] [ ;.;.;.P.P.P.P.P.P.P.P.P.P.P.P.P.P.P.",
"P.P.P.P.P.P.P.P.P.P.P.P.P.P.P.P.&.*.&.&.5.5.3.2.2.2.2.2.2.2.>.=.=.` B ( ( B ( B ( ( _ _ { ;.;.;.;.P.P.P.P.P.P.P.P.P.P.P.P.P.P.P.",
"P.P.P.P.P.P.P.P.P.P.P.P.P.P.P.P.&.&.&.&.&.1.>.>.>.>.>.>.>.>.1.,.B N N N N N N N N N N { ;.;.;.;.;.P.P.P.P.P.P.P.P.P.P.P.P.P.P.P.",
"P.P.P.P.P.P.P.P.P.P.P.P.P.P.P.P.&.&.&.&.%.~ ' ] _ ] ] ] ] ] _ m m x x x x x x x x x k l X.:.;.;.;.P.P.P.P.P.P.P.P.P.P.P.P.P.P.P.",
"P.P.P.P.P.P.P.P.P.P.P.P.P.P.P.P.&.&.*.$.#.~ ~ ' ] ] ] ] ] ` m m m m v x x x x x x k l l l } ;.;.;.P.P.P.P.P.P.P.P.P.P.P.P.P.P.P.",
"P.P.P.P.P.P.P.P.P.P.P.P.P.P.P.P.&.*.$.#.#.~ R R  .] ] ] ( m m m m m m n x x x c k l l l l l V ;.;.P.P.P.P.P.P.P.P.P.P.P.P.P.P.P.",
"P.P.P.P.P.P.P.P.P.P.P.P.P.P.P.P.*.#.#.#.#.~ R R R  .] m m m m m m m m m M x b l l l l l l l l z :.P.P.P.P.P.P.P.P.P.P.P.P.P.P.P.",
"P.P.P.P.P.P.P.P.P.P.P.P.P.P.P.P.@.#.#.#.#.~ R R R R P.P.P.P.P.P.P.P.P.P.P.P.P.P.P.P.P.P.P.P.P.P.P.P.P.P.P.P.P.P.P.P.P.P.P.P.P.P.",
"P.P.P.P.P.P.P.P.P.P.P.P.P.P.P.P.O.@.#.#.#.~ R R T : P.P.P.P.P.P.P.P.P.P.P.P.P.P.P.P.P.P.P.P.P.P.P.P.P.P.P.P.P.P.P.P.P.P.P.P.P.P.",
"P.P.P.P.P.P.P.P.P.P.P.P.P.P.P.P.O.O.@.#.#.~ R T : : P.P.P.P.P.P.P.P.P.P.P.P.P.P.P.P.P.P.P.P.P.P.P.P.P.P.P.P.P.P.P.P.P.P.P.P.P.P.",
"P.P.P.P.P.P.P.P.P.P.P.P.P.P.P.P.O.O.O.+.#.~ T : : : P.P.P.P.P.P.P.P.P.P.P.P.P.P.P.P.P.P.P.P.P.P.P.P.P.P.P.P.P.P.P.P.P.P.P.P.P.P.",
"P.P.P.P.P.P.P.P.P.P.P.P.P.P.P.P.O.O.O.O.+.T : : : : P.P.P.P.P.P.P.P.P.P.P.P.P.P.P.P.P.P.P.P.P.P.P.P.P.P.P.P.P.P.P.P.P.P.P.P.P.P.",
"P.P.P.P.P.P.P.P.P.P.P.P.P.P.P.P.O.O.O.O.o.; : : : : P.P.P.P.P.P.P.P.P.P.P.P.P.P.P.P.P.P.P.P.P.P.P.P.P.P.P.P.P.P.P.P.P.P.P.P.P.P.",
"P.P.P.P.P.P.P.P.P.P.P.P.P.P.P.P.O.O.O.o.! - = : : : P.P.P.P.P.P.P.P.P.P.P.P.P.P.P.P.P.P.P.P.P.P.P.P.P.P.P.P.P.P.P.P.P.P.P.P.P.P.",
"P.P.P.P.P.P.P.P.P.P.P.P.P.P.P.P.O.O.o.! ! - * = : : P.P.P.P.P.P.P.P.P.P.P.P.P.P.P.P.P.P.P.P.P.P.P.P.P.P.P.P.P.P.P.P.P.P.P.P.P.P.",
"P.P.P.P.P.P.P.P.P.P.P.P.P.P.P.P.O.o.! ! ! - * * = : P.P.P.P.P.P.P.P.P.P.P.P.P.P.P.P.P.P.P.P.P.P.P.P.P.P.P.P.P.P.P.P.P.P.P.P.P.P.",
"P.P.P.P.P.P.P.P.P.P.P.P.P.P.P.P.o.! ! ! ! - * * * = P.P.P.P.P.P.P.P.P.P.P.P.P.P.P.P.P.P.P.P.P.P.P.P.P.P.P.P.P.P.P.P.P.P.P.P.P.P.",
"P.P.P.P.P.P.P.P.P.P.P.P.P.P.P.P.Q ! ! ! ! - * * * e 0.j.h.h.h.h.h.h.h.h.j.b.N.C.V.V.V.V.V.V.V.V.L.P.P.P.P.P.P.P.P.P.P.P.P.P.P.P.",
"P.P.P.P.P.P.P.P.P.P.P.P.P.P.P.P.E W ! ! ! - * = e 8.8.0.h.h.h.h.h.h.h.k.b.b.b.N.V.V.V.V.V.V.C.K.K.P.P.P.P.P.P.P.P.P.P.P.P.P.P.P.",
"P.P.P.P.P.P.P.P.P.P.P.P.P.P.P.P.E E W ! ! = = e 8.8.8.8.8.s.h.h.h.h.x.b.b.b.b.b.m.V.V.V.V.Z.K.K.K.P.P.P.P.P.P.P.P.P.P.P.P.P.P.P.",
"P.P.P.P.P.P.P.P.P.P.P.P.P.P.P.P.E E E W ! - e p.8.8.0.p.8.0.s.h.h.c.b.b.b.b.b.b.b.n.V.V.Z.K.K.K.K.P.P.P.P.P.P.P.P.P.P.P.P.P.P.P.",
"P.P.P.P.P.P.P.P.P.P.P.P.P.P.P.P.E E E E E e p p p p 6.p 6.6.6.r.c.c.c.c.c.c.c.c.c.c.v.A.K.K.K.K.K.P.P.P.P.P.P.P.P.P.P.P.P.P.P.P.",
"P.P.P.P.P.P.P.P.P.P.P.P.P.P.P.P.E E E E s 4 .   .   . .     . , < y i y i i i i i i 8.i.J.K.K.K.K.P.P.P.P.P.P.P.P.P.P.P.P.P.P.P.",
"P.P.P.P.P.P.P.P.P.P.P.P.P.P.P.P.E E E d 8.4 3             X < < < < y i i i i y i q.t.i.q.B.K.K.K.P.P.P.P.P.P.P.P.P.P.P.P.P.P.P.",
"P.P.P.P.P.P.P.P.P.P.P.P.P.P.P.P.E E d 8.8.4 3 3 .       O < < < < < < y y i i i y.y.t.t.i.i.z.K.K.P.P.P.P.P.P.P.P.P.P.P.P.P.P.P.",
"P.P.P.P.P.P.P.P.P.P.P.P.P.P.P.P.E p.8.8.8.4 3 3 5 .   @ < < < < < < < < t y 9.t.y.y.i.i.t.i.t.l.K.P.P.P.P.P.P.P.P.P.P.P.P.P.P.P.",
"P.P.P.P.P.P.P.P.P.P.P.P.P.P.P.P.p.8.8.8.8.4 3 3 5 3 > < < < < < < < < < 7 t t.t.i.i.y.i.i.i.i.y.d.P.P.P.P.P.P.P.P.P.P.P.P.P.P.P.",
"P.P.P.P.P.P.P.P.P.P.P.P.P.P.P.P.h.8.8.8.8.4 3 3 3 u P.P.P.P.P.P.P.P.P.P.P.P.P.P.P.P.P.P.P.P.P.P.P.P.P.P.P.P.P.P.P.P.P.P.P.P.P.P.",
"P.P.P.P.P.P.P.P.P.P.P.P.P.P.P.P.h.h.8.8.8.4 3 3 u p P.P.P.P.P.P.P.P.P.P.P.P.P.P.P.P.P.P.P.P.P.P.P.P.P.P.P.P.P.P.P.P.P.P.P.P.P.P.",
"P.P.P.P.P.P.P.P.P.P.P.P.P.P.P.P.h.h.h.0.8.4 5 u p i P.P.P.P.P.P.P.P.P.P.P.P.P.P.P.P.P.P.P.P.P.P.P.P.P.P.P.P.P.P.P.P.P.P.P.P.P.P.",
"P.P.P.P.P.P.P.P.P.P.P.P.P.P.P.P.h.h.h.h.0.4 u i 9.6.P.P.P.P.P.P.P.P.P.P.P.P.P.P.P.P.P.P.P.P.P.P.P.P.P.P.P.P.P.P.P.P.P.P.P.P.P.P.",
"P.P.P.P.P.P.P.P.P.P.P.P.P.P.P.P.h.h.h.h.h.p p p 6.p P.P.P.P.P.P.P.P.P.P.P.P.P.P.P.P.P.P.P.P.P.P.P.P.P.P.P.P.P.P.P.P.P.P.P.P.P.P.",
"P.P.P.P.P.P.P.P.P.P.P.P.P.P.P.P.h.h.h.j.b.u.9.p p p P.P.P.P.P.P.P.P.P.P.P.P.P.P.P.P.P.P.P.P.P.P.P.P.P.P.P.P.P.P.P.P.P.P.P.P.P.P.",
"P.P.P.P.P.P.P.P.P.P.P.P.P.P.P.P.h.j.j.b.b.u.i.9.p p P.P.P.P.P.P.P.P.P.P.P.P.P.P.P.P.P.P.P.P.P.P.P.P.P.P.P.P.P.P.P.P.P.P.P.P.P.P.",
"P.P.P.P.P.P.P.P.P.P.P.P.P.P.P.P.h.j.b.b.b.u.t.t.7.p P.P.P.P.P.P.P.P.P.P.P.P.P.P.P.P.P.P.P.P.P.P.P.P.P.P.P.P.P.P.P.P.P.P.P.P.P.P.",
"P.P.P.P.P.P.P.P.P.P.P.P.P.P.P.P.k.b.b.b.b.u.t.t.t.7.P.P.P.P.P.P.P.P.P.P.P.P.P.P.P.P.P.P.P.P.P.P.P.P.P.P.P.P.P.P.P.P.P.P.P.P.P.P.",
"P.P.P.P.P.P.P.P.P.P.P.P.P.P.P.P.m.b.b.b.b.u.t.t.t.e.Z A A A A A A A A A A G I I I I I I I I I I S.P.P.P.P.P.P.P.P.P.P.P.P.P.P.P.",
"P.P.P.P.P.P.P.P.P.P.P.P.P.P.P.P.M.m.b.b.b.u.t.t.w.C C C A A A A A A A S F F F K I I I I I I I D.G.P.P.P.P.P.P.P.P.P.P.P.P.P.P.P.",
"P.P.P.P.P.P.P.P.P.P.P.P.P.P.P.P.M.M.m.b.b.u.t.w.C C C C C A A A A A J G F F F F K I I I I I G.G.G.P.P.P.P.P.P.P.P.P.P.P.P.P.P.P.",
"P.P.P.P.P.P.P.P.P.P.P.P.P.P.P.P.M.M.M.m.b.u.f.C C C C C C C Z A A J F F F F F F F H I I Y G.G.G.G.P.P.P.P.P.P.P.P.P.P.P.P.P.P.P.",
"P.P.P.P.P.P.P.P.P.P.P.P.P.P.P.P.M.M.N.M.M.f.C C C C C C C C C Z D F F F F F F F F F G g.G.G.G.G.G.P.P.P.P.P.P.P.P.P.P.P.P.P.P.P.",
"P.P.P.P.P.P.P.P.P.P.P.P.P.P.P.P.M.M.M.M.a.+ 1 1 1 1 1 1 1 1 1 w 8 # # # # # # # # # % j H.G.G.G.G.P.P.P.P.P.P.P.P.P.P.P.P.P.P.P.",
"P.P.P.P.P.P.P.P.P.P.P.P.P.P.P.P.M.M.M.d + + + 1 1 1 1 1 1 1 w w q q # # # # # # # f h h h F.G.G.G.P.P.P.P.P.P.P.P.P.P.P.P.P.P.P.",
"P.P.P.P.P.P.P.P.P.P.P.P.P.P.P.P.M.N.a o o o o o 1 1 1 1 2 w w w w w q $ # # # # f h h h h h <.G.G.P.P.P.P.P.P.P.P.P.P.P.P.P.P.P.",
"P.P.P.P.P.P.P.P.P.P.P.P.P.P.P.P.M.r o o o o o o o 1 1 9 w w w w w w w w & # # h h h h h h h h P G.P.P.P.P.P.P.P.P.P.P.P.P.P.P.P.",
"P.P.P.P.P.P.P.P.P.P.P.P.P.P.P.P.6 o o o o o o o o o 0 w w w w w w w w w w & h g g g g g g g h h L P.P.P.P.P.P.P.P.P.P.P.P.P.P.P.",
"P.P.P.P.P.P.P.P.P.P.P.P.P.P.P.P.P.P.P.P.P.P.P.P.P.P.P.P.P.P.P.P.P.P.P.P.P.P.P.P.P.P.P.P.P.P.P.P.P.P.P.P.P.P.P.P.P.P.P.P.P.P.P.P.",
"P.P.P.P.P.P.P.P.P.P.P.P.P.P.P.P.P.P.P.P.P.P.P.P.P.P.P.P.P.P.P.P.P.P.P.P.P.P.P.P.P.P.P.P.P.P.P.P.P.P.P.P.P.P.P.P.P.P.P.P.P.P.P.P.",
"P.P.P.P.P.P.P.P.P.P.P.P.P.P.P.P.P.P.P.P.P.P.P.P.P.P.P.P.P.P.P.P.P.P.P.P.P.P.P.P.P.P.P.P.P.P.P.P.P.P.P.P.P.P.P.P.P.P.P.P.P.P.P.P.",
"P.P.P.P.P.P.P.P.P.P.P.P.P.P.P.P.P.P.P.P.P.P.P.P.P.P.P.P.P.P.P.P.P.P.P.P.P.P.P.P.P.P.P.P.P.P.P.P.P.P.P.P.P.P.P.P.P.P.P.P.P.P.P.P.",
"P.P.P.P.P.P.P.P.P.P.P.P.P.P.P.P.P.P.P.P.P.P.P.P.P.P.P.P.P.P.P.P.P.P.P.P.P.P.P.P.P.P.P.P.P.P.P.P.P.P.P.P.P.P.P.P.P.P.P.P.P.P.P.P.",
"P.P.P.P.P.P.P.P.P.P.P.P.P.P.P.P.P.P.P.P.P.P.P.P.P.P.P.P.P.P.P.P.P.P.P.P.P.P.P.P.P.P.P.P.P.P.P.P.P.P.P.P.P.P.P.P.P.P.P.P.P.P.P.P.",
"P.P.P.P.P.P.P.P.P.P.P.P.P.P.P.P.P.P.P.P.P.P.P.P.P.P.P.P.P.P.P.P.P.P.P.P.P.P.P.P.P.P.P.P.P.P.P.P.P.P.P.P.P.P.P.P.P.P.P.P.P.P.P.P.",
"P.P.P.P.P.P.P.P.P.P.P.P.P.P.P.P.P.P.P.P.P.P.P.P.P.P.P.P.P.P.P.P.P.P.P.P.P.P.P.P.P.P.P.P.P.P.P.P.P.P.P.P.P.P.P.P.P.P.P.P.P.P.P.P.",
"P.P.P.P.P.P.P.P.P.P.P.P.P.P.P.P.P.P.P.P.P.P.P.P.P.P.P.P.P.P.P.P.P.P.P.P.P.P.P.P.P.P.P.P.P.P.P.P.P.P.P.P.P.P.P.P.P.P.P.P.P.P.P.P."
};
