/* XPM */
static char *result[] = {
/* columns rows colors chars-per-pixel */
"64 64 197 2 ",
"   c #030303",
".  c #040611",
"X  c #0B1226",
"o  c #292A28",
"O  c #0E2F4A",
"+  c #113F4F",
"@  c #385C7D",
"#  c #69696F",
"$  c #083F94",
"%  c #0A438D",
"&  c #1A4681",
"*  c #13468E",
"=  c #14498C",
"-  c #1D4C88",
";  c #064493",
":  c #0A4496",
">  c #06449C",
",  c #03489E",
"<  c #0C4797",
"1  c #154994",
"2  c #1A4D93",
"3  c #1A4D99",
"4  c #164B99",
"5  c #0E539A",
"6  c #1E519A",
"7  c #195299",
"8  c #22498C",
"9  c #2A538E",
"0  c #365C8C",
"q  c #2C5A96",
"w  c #295899",
"e  c #365C92",
"r  c #396897",
"t  c #39719B",
"y  c #3C688B",
"u  c #0344A2",
"i  c #0349A4",
"p  c #034AAD",
"a  c #0748A5",
"s  c #0953A4",
"d  c #0653AC",
"f  c #0758A8",
"g  c #054EB4",
"h  c #0455BB",
"j  c #0651B1",
"k  c #115CB5",
"l  c #165BA3",
"z  c #0B65B4",
"x  c #0F6FBB",
"c  c #136FBB",
"v  c #1374B9",
"b  c #396CA0",
"n  c #3272AA",
"m  c #216AB0",
"M  c #2862A6",
"N  c #517F9F",
"B  c #4A6E97",
"V  c #4979A0",
"C  c #537CA4",
"Z  c #0A5FC7",
"A  c #0A64CC",
"S  c #146DCC",
"D  c #1569C6",
"F  c #127BC4",
"G  c #0D6FD8",
"H  c #0971D6",
"J  c #0C7AD7",
"K  c #0572DD",
"L  c #0B73DB",
"P  c #0E7EDF",
"I  c #0876E5",
"U  c #0979E5",
"Y  c #0976E8",
"T  c #057DEC",
"R  c #0977E8",
"E  c #037EF1",
"W  c #3B8EBA",
"Q  c #4B80AC",
"!  c #4A80B4",
"~  c #4B9BBF",
"^  c #5096BD",
"/  c #5585B9",
"(  c #618DB5",
")  c #1B87CD",
"_  c #1584C9",
"`  c #1C97D6",
"'  c #1B83DB",
"]  c #2891CD",
"[  c #2696D4",
"{  c #3691D5",
"}  c #2586D5",
"|  c #0282ED",
" . c #0489EA",
".. c #098BED",
"X. c #0486E3",
"o. c #1988E4",
"O. c #0794E6",
"+. c #0793EC",
"@. c #0994EC",
"#. c #0D9EEF",
"$. c #0D97E6",
"%. c #0181F1",
"&. c #088FF1",
"*. c #0B92F1",
"=. c #0E9AF1",
"-. c #129AEA",
";. c #0EA3EE",
":. c #1BA4E1",
">. c #12A3ED",
",. c #15A3E5",
"<. c #1BB3EE",
"1. c #15BEEE",
"2. c #1BBDEC",
"3. c #18BAEA",
"4. c #0EA2F2",
"5. c #12A4F1",
"6. c #13ACF3",
"7. c #12B2F4",
"8. c #14BDF3",
"9. c #19BAF3",
"0. c #12BDF8",
"q. c #1AB4F7",
"w. c #22AAE4",
"e. c #57B2D1",
"r. c #5EB2DC",
"t. c #60ABC7",
"y. c #58A8E3",
"u. c #2BC5DE",
"i. c #0FC2EE",
"p. c #1BC1E5",
"a. c #12C1ED",
"s. c #1BC2EB",
"d. c #0FC1F1",
"f. c #11C0F0",
"g. c #2CC7E6",
"h. c #21C5EB",
"j. c #27C8EA",
"k. c #31CBE6",
"l. c #32CDE9",
"z. c #36CAE3",
"x. c #3AD5EC",
"c. c #44D6EA",
"v. c #4BD7EE",
"b. c #45D9ED",
"n. c #4CDCEE",
"m. c #4CD7E3",
"M. c #51DAE4",
"N. c #5ADFEC",
"B. c #44D5F0",
"V. c #6ED0E1",
"C. c #55E3EF",
"Z. c #59E2ED",
"A. c #5AE3F1",
"S. c #51E1F0",
"D. c #63E6EE",
"F. c #6AEAEF",
"G. c #64E7ED",
"H. c #7FF2EE",
"J. c #6EEEF3",
"K. c #60E4F2",
"L. c #74EEF3",
"P. c #79E9F3",
"I. c #7DF2F3",
"U. c #79F3F8",
"Y. c #90A7BE",
"T. c #80A8C2",
"R. c #9AC1D2",
"E. c #89C1E1",
"W. c #86D7EE",
"Q. c #88EAEC",
"!. c #92E5EF",
"~. c #97EEEA",
"^. c #82F1EE",
"/. c #8DF1EE",
"(. c #9EF1EC",
"). c #81F1F1",
"_. c #97F0F2",
"`. c #A3EEED",
"'. c #ABE7EA",
"]. c #B7EFEC",
"[. c #A3F2F2",
"{. c #B6F1F0",
"}. c #C3F3EE",
"|. c #D3F1EF",
" X c #C3F3F2",
".X c #D5F3F2",
"XX c #DCF3F3",
"oX c #C9E7F0",
"OX c #F3EFEE",
"+X c #EDF3EE",
"@X c #F2F0ED",
"#X c #F3EEF1",
"$X c #EBF2F2",
"%X c #E3F4F3",
"&X c #F1F0F1",
"*X c #E8E8E7",
"=X c #2388C5",
/* pixels */
"=X=X=X=X=X=X=X=X=X=X=X=X=X=X=X=X=X=X=X=X=X=X=X=X=X=X=X=X=X=X=X=X=X=X=X=X=X=X=X=X=X=X=X=X=X=X=X=X=X=X=X=X=X=X=X=X=X=X=X=X=X=X=X=X",
"=X=X=X=X=X=X=X=X=X=X=X=X=X=X=X=X=X=X=X=X=X=X=X=X=X=X=X=X=X=X=X=X=X=X=X=X=X=X=X=X=X=X=X=X=X=X=X=X=X=X=X=X=X=X=X=X=X=X=X=X=X=X=X=X",
"=X=X=X=X=X=X=X=X=X=X=X=X=X=X=X=X=X=X=X=X=X=X=X=X=X=X=X=X=X=X=X=X=X=X=X=X=X=X=X=X=X=X=X=X=X=X=X=X=X=X=X=X=X=X=X=X=X=X=X=X=X=X=X=X",
"=X=X=X=X=X=X=X=X=X=X=X=X=X=X=X=X=X=X=X=X=X=X=X=X=X=X=X=X=X=X=X=X=X=X=X=X=X=X=X=X=X=X=X=X=X=X=X=X=X=X=X=X=X=X=X=X=X=X=X=X=X=X=X=X",
"=X=X=X=X=X=X=X=X=X=X=X=X=X=X=X=X=X=X=X=X=X=X=X=X=X=X=X=X=X=X=X=X=X=X=X=X=X=X=X=X=X=X=X=X=X=X=X=X=X=X=X=X=X=X=X=X=X=X=X=X=X=X=X=X",
"=X=X=X=X=X=X=X=X=X=X=X=X=X=X=X=X=X=X=X=X=X=X=X=X=X=X=X=X=X=X=X=X=X=X=X=X=X=X=X=X=X=X=X=X=X=X=X=X=X=X=X=X=X=X=X=X=X=X=X=X=X=X=X=X",
"=X=X=X=X=X=X=X=X=X=X=X=X=X=X=X=X=X=X=X=X=X=X=X=X=X=X=X=X=X=X=X=X=X=X=X=X=X=X=X=X=X=X=X=X=X=X=X=X=X=X=X=X=X=X=X=X=X=X=X=X=X=X=X=X",
"=X=X=X=X=X=X=X=X=X=X=X=X=X=X=X=X=X=X=X=X=X=X=X=X=X=X=X=X=X=X=X=X=X=X=X=X=X=X=X=X=X=X=X=X=X=X=X=X=X=X=X=X=X=X=X=X=X=X=X=X=X=X=X=X",
"=X=X=X=X=X=X=X=X=X=X=X=X=X=X=X=X=X=X=X=X=X=X=X=X=X=X=X=X=X=X=X=X=X=X=X=X=X=X=X=X=X=X=X=X=X=X=X=X=X=X=X=X=X=X=X=X=X=X=X=X=X=X=X=X",
"=X=X=X=X=X=X=X=X=X=X=X=X=X=X=X=X=X=X=X=X=X=X=X=X=X=X=X=X=X=X=X=X=X=X=X=X=X=X=X=X=X=X=X=X=X=X=X=X=X=X=X=X=X=X=X=X=X=X=X=X=X=X=X=X",
"=X=X=X=X=X=X=X=X=X=X=X=X=X=X=X=X=X=X=X=X=X=X=X=X=X=X=X=X=X=X=X=X=X=X=X=X=X=X=X=X=X=X=X=X=X=X=X=X=X=X=X=X=X=X=X=X=X=X=X=X=X=X=X=X",
"=X=X=X=X=X=X=X=X=X=X=X=X=X=X=X=X=X=X=X=X=X=X=X=X=X=X=X=X=X=X=X=X=X=X=X=X=X=X=X=X=X=X=X=X=X=X=X=X=X=X=X=X=X=X=X=X=X=X=X=X=X=X=X=X",
"=X=X=X=X=X=X=X=X=X=X=X=X=X=X=X=X=X=X=X=X=X=X=X=X=X=X=X=X=X=X=X=X=X=X=X=X=X=X=X=X=X=X=X=X=X=X=X=X=X=X=X=X=X=X=X=X=X=X=X=X=X=X=X=X",
"=X=X=X=X=X=X=X=X=X=X=X=X=X=X=X=X=X=X=X=X=X=X=X=X=X=X=X=X=X=X=X=X=X=X=X=X=X=X=X=X=X=X=X=X=X=X=X=X=X=X=X=X=X=X=X=X=X=X=X=X=X=X=X=X",
"=X=X=X=X=X=X=X=X=X=X=X=X=X=X=X=X=X=X=X=X=X=X=X=X=X=X=X=X=X=X=X=X=X=X=X=X=X=X=X=X=X=X=X=X=X=X=X=X=X=X=X=X=X=X=X=X=X=X=X=X=X=X=X=X",
"=X=X=X=X=X=X=X=X=X=X=X=X=X=X=X=X=X=X=X=X=X=X=X=X=X=X=X=X=X=X=X=X=X=X=X=X=X=X=X=X=X=X=X=X=X=X=X=X=X=X=X=X=X=X=X=X=X=X=X=X=X=X=X=X",
"=X=X=X=X=X=X=X=X=X=X=X=X=X=X=X=X=X=X=X=X=X=X=X=X=X=X=X=X=X=X=X=X=X=X=X=X=X=X=X=X=X=X=X=X=X=X=X=X=X=X=X=X=X=X=X=X=X=X=X=X=X=X=X=X",
"=X=X=X=X=X=X=X=X=X=X=X=X=X=X=X=X=X=X=X=X=X=X=X=X=X=X=X=X=X=X=X=X=X=X=X=X=X=X=X=X=X=X=X=X=X=X=X=X=X=X=X=X=X=X=X=X=X=X=X=X=X=X=X=X",
"=X=X=X=X=X=X=X=X=X=X=X=X=X=X=X=X=X=X=X=X=X=X=X=X=X=X=X=X=X=X=X=X=X=X=X=X=X=X=X=X=X=X=X=X=X=X=X=X=X=X=X=X=X=X=X=X=X=X=X=X=X=X=X=X",
"=X=X=X=X=X=X=X=X=X=X=X=X=X=X=X=X=X=X=X=X=X=X=X=X=X=X=X=X=X=X=X=X=X=X=X=X=X=X=X=X=X=X=X=X=X=X=X=X=X=X=X=X=X=X=X=X=X=X=X=X=X=X=X=X",
"=X=X=X=X=X=X=X=X=X=X=X=X=X=X=X=X=X=X=X=X=X=X=X=X=X=X=X=X=X=X=X=X=X=X=X=X=X=X=X=X=X=X=X=X=X=X=X=X=X=X=X=X=X=X=X=X=X=X=X=X=X=X=X=X",
"=X=X=X=X=X=X=X=X=X=X=X=X=X=X=X=X=X=X=X=X=X=X=X=X=X=X=X=X=X=X=X=X=X=X=X=X=X=X=X=X=X=X=X=X=X=X=X=X=X=X=X=X=X=X=X=X=X=X=X=X=X=X=X=X",
"=X=X=X=X=X=X=X=X=X=X=X=X=X=X=X=X=X=X=X=X=X=X=X=X=X=X=X=X=X=X=X=X=X=X=X=X=X=X=X=X=X=X=X=X=X=X=X=X=X=X=X=X=X=X=X=X=X=X=X=X=X=X=X=X",
"=X=X=X=X=X=X=X=X=X=X=X=X=X=X=X=X=X=X=X=X=X=X=X=X=X=X=X=X=X=X=X=X=X=X=X=X=X=X=X=X=X=X=X=X=X=X=X=X=X=X=X=X=X=X=X=X=X=X=X=X=X=X=X=X",
"=X=X=X=X=X=X=X=X=X=X=X=X=X=X=X=X=X=X=X=X=X=X=X=X=X=X=X=X=X=X=X=X=X=X=X=X=X=X=X=X=X=X=X=X=X=X=X=X=X=X=X=X=X=X=X=X=X=X=X=X=X=X=X=X",
"=X=X=X=X=X=X=X=X=X=X=X=X=X=X=X=X=X=X=X=X=X=X- 3 3 3 3 3 3 4 * =X=X=X=X=X=X=X=X=X=X=X=X=X=X=X=X=X=X=X=X=X=X=X=X=X=X=X=X=X=X=X=X=X",
"=X=X=X=X=X=X=X=X=X=X=X=X=X=X=X=X=X=X=X=X= % w.<.<.<.<.<.<.<.:.% % 4 =X=X=X=X=X=X=X=X=X=X=X=X=X=X=X=X=X=X=X=X=X=X=X=X=X=X=X=X=X=X",
"=X=X=X=X=X=X=X=X=X=X=X=X=X=X=X=X=X=X> c 8.s.a.2.I.I.I.I.p.1.1.8.s.8.; > q =X=X=X=X=X=X=X=X=X=X=X=X=X=X=X=X=X=X=X=X=X=X=X=X=X=X=X",
"=X=X=X=X=X=X=X=X=X=X=X=X=X=X=X=X=X: f.f.8.s.I.).^.^.^.I.).I.I.c.a.a.s.9.` > =X=X=X=X=X=X=X=X=X=X=X=X=X=X=X=X=X=X=X=X=X=X=X=X=X=X",
"=X=X=X=X=X=X=X=X=X=X=X=X=X=X=X=X< 8.8.f.d.L.^.~.#X|.).).).).^.H.^.I.p.s.d.a.x =X=X=XT.u i , , i i i R.=X=X=X=X=X=X=X=X=X=X=X=X=X",
"=X=X=X=X=X=X=X=X=X=X=X=X=Xd d d f.f.f.f.f.L.^.&X&XOX(.).I.).).).).).).U.h.s.f.f i f v h.h.h.s.f.d.d.z f =X=X=X=X=X=X=X=X=X=X=X=X",
"=X=X=X=X=X=X=X=X=X=XV _ ) l.f.f.f.f.f.f.d.L.^.].@XXX/.^.^.^.^.^.).).).).).D.h.d.;.;.l.).M.b.B.;.#.#.2.8._ ) B =X=X=X=X=X=X=X=X=X",
"=X=X=X=X=X=X=X=X=X@ [ 1.D.S.f.f.a.O.f.d.s.k.I.).`._.).H.z.l.l.l.l.l.l.l.m.I.F.s.a.6.,.l.$.@.@.| | | +.@.1.3.w =X=X=X=X=X=X=X=X=X",
"=X=X=X=X=X=X=X=Xe [ a.J.I.Z.f.f.f.| O.a.i.a.h.I.H.).^.z.f.f.f.f.f.f.f.8.f.h.s.1.f.f.5...%.| %.%.%.%.%.E f l =X=X=X=X=X=X=X=X=X=X",
"=X=X=X=X=X=X=X=X- :.f.^.XXC.a.a.f.9. .d.i.8.1.p.p.p.p.a.f.f.d.a.f.f.a.U.A.a.a.a.8.d.8.5.%.| %.%.%.%.g u =X=X=X=X=X=X=X=X=X=X=X=X",
"=X=X=X=X=X=X=X=X2 :.a.H.%X^.c.i.f.f.| | ;.8.i.f.f.f.a.f.f.f.f.f.a.1.U.).I.b.d.f.f.d.f.a. .| %.%.| h =X=X=X=X=X=X=X=X=X=X=X=X=X=X",
"=X=X=X=X=X=X=X=X2 :.| 2.L.XX].~.g.a.7. .%.%.q.q.9.8.8.a.f.f.f.f.a.a.J.I.I.x.f.f.8.p.h.p.f.X.E X.S =X=X=X=X=X=X=X=X=X=X=X=X=X=X=X",
"=X=X=X=X=X=X=X=Xy ] O.| 3.A.!.'.G.1.f.6. .| %.z k F i.f.f.f.f.a.f.a.1.D.n.d.f.f.k.I.).Z.f.+.T S e =X=X=X=X=X=X=X=X=X=X=X=X=X=X=X",
"=X=X=X=X=X=X=X=X=Xq -.T | ;.5.;.;.;.>.4.&.%.= #   + i.8.f.f.f.f.f.f.8.i.a.8.x.b.).).).I.M.s.| 6 =X=X=X=X=X=X=X=X=X=X=X=X=X=X=X=X",
"=X=X=X=X=X=X=X=X=X=Xk 5.E E | | %.%.%.%.| | . *X  O 7.i.a.f.f.a.f.n.A.Z.A.C.L.I.)./. X[.).s.%.D r =X=X=X=X=X=X=X=X=X=X=X=X=X=X=X",
"=X=X=X=X=X=X=X=X=X=X=Xk 7.5.%.%.%.%.%.%.%.| . o X S ..8.f.f.f.f.f.j.g.g.).).I.).).~.+X{.).s.7.R 1 =X=X=X=X=X=X=X=X=X=X=X=X=X=X=X",
"=X=X=X=X=X=X=X=X=X=X=X=X> F 8.8.0.8.8.` A | J L J %.%.| 8.f.f.a.a.f.8.d.s.p.A.^.^.)./.^.u.f.f.R 3 =X=X=X=X=X=X=X=X=X=X=X=X=X=X=X",
"=X=X=X=X=X=X=X=X=X=X=X=X=XN ; ; u u , C $X} U | %.E | | | X.a.a.f.f.i.| | ;.p.2.2.I.).n.a.a.0.%.G =X=X=X=X=X=X=X=X=X=X=X=X=X=X=X",
"=X=X=X=X=X=X=X=X=X=X=X=X=X=X=X=X* * !.%X$X&X&X' o.%.%.U %.%.h.b.f.d.8.| %.%.%.| 9.9.a.f.f.f.f.8.K =X=X=X=X=X=X=X=X=X=X=X=X=X=X=X",
"=X=X=X=X=X=X=X=X=X=X=X=X=X=X=X=X=X=Xt V.'..X.X@XoX{ { , U | h.v.8.d.8.L %.%.| %.%...7.7.a.f.f.7.K =X=X=X=X=X=X=X=X=X=X=X=X=X=X=X",
"=X=X=X=X=X=X=X=X=X=X=X=X=X=X=X=X=X=X=Xw ~ e.e.}.}.|.@X6 T | h.Z.s.f.2.a y.y.y.y.E E E *.f.d.8.8.Y C =X=X=X=X=X=X=X=X=X=X=X=X=X=X",
"=X=X=X=X=X=X=X=X=X=X=X=X=X=X=X=X=X=X=X=X$ A A W W t.{.7 T | j.).l.f.f.) T.&X&X@XE.E.r.E =.8.a.8.=.h =X=X=X=X=X=X=X=X=X=X=X=X=X=X",
"=X=X=X=X=X=X=X=X=X=X=X=X=X=X=X=X=X=X=X=X% >.6.L L S c > T | a.N.F.s.a.1.n `.`.(.(.`.Q.W.o.*.0.f.7.Z =X=X=X=X=X=X=X=X=X=X=X=X=X=X",
"=X=X=X=X=X=X=X=X=X=X=X=X=X=X=X=X=X=X=X=X% <.i.q.U M =X2 T %.O.n.I.J.1.9.> 5 5 5 5 5 5 ~ P.U  .8.7.h =X=X=X=X=X=X=X=X=X=X=X=X=X=X",
"=X=X=X=X=X=X=X=X=X=X=X=X=X=X=X=X=X=X=X=X=X4 9.f.L 8 =X=X< %.| a.K.^.I.9.7 =X=X=X=X=X=XC ; ).X. .7.h =X=X=X=X=X=X=X=X=X=X=X=X=X=X",
"=X=X=X=X=X=X=X=X=X=X=X=X=X=X=X=X=X=X=X=X=X- R R & =X=X=X1 R E 5.C.).U.8.2 =X=X=X=X=X=X=X=X< P. .7.h =X=X=X=X=X=X=X=X=X=X=X=X=X=X",
"=X=X=X=X=X=X=X=X=X=X=X=X=X=X=X=X=X=X=X=X=X=X& 8 =X=X=X=X=Xu %.#.a.J.I.1.2 =X=X: p p p p p p u  .7.h =X=X=X=X=X=X=X=X=X=X=X=X=X=X",
"=X=X=X=X=X=X=X=X=X=X=X=X=X=X=X=X=X=X=X=X=X=X=X=X=X=X=X=X=Xb H %.6.S.I.` 0 =X=X; E E %...+.+.u  .7.h =X=X=X=X=X=X=X=X=X=X=X=X=X=X",
"=X=X=X=X=X=X=X=X=X=X=X=X=X=X=X=X=X=X=X=X=X=X=X=X=X=X=X=X=X=X/ K =.8.v.> =X=X=X0 Z T E ..4.0.F  .7.h =X=X=X=X=X=X=X=X=X=X=X=X=X=X",
"=X=X=X=X=X=X=X=X=X=X=X=X=X=X=X=X=X=X=X=X=X=X=X=X=X=X=X=X=X=X=XQ G  .s =X=X=X=X=X=Xj | | E ..0. .7.h =X=X=X=X=X=X=X=X=X=X=X=X=X=X",
"=X=X=X=X=X=X=X=X=X=X=X=X=X=X=X=X=X=X=X=X=X=X=X=X=X=X=X=X=X=X=X=Xr a =X=X=X=X=X=X=X=Xu u u T 8.8.7.h =X=X=X=X=X=X=X=X=X=X=X=X=X=X",
"=X=X=X=X=X=X=X=X=X=X=X=X=X=X=X=X=X=X=X=X=X=X=X=X=X=X=X=X=X=X=X=X=X=X=X=X=X=X=X=X=X=X=X=X3 T 0.f.7.h =X=X=X=X=X=X=X=X=X=X=X=X=X=X",
"=X=X=X=X=X=X=X=X=X=X=X=X=X=X=X=X=X=X=X=X=X=X=X=X=X=X=X=X=X=X=X=X=X=X=X=X=X=X=X=X=X=X=X=X4 R | 8.6.h =X=X=X=X=X=X=X=X=X=X=X=X=X=X",
"=X=X=X=X=X=X=X=X=X=X=X=X=X=X=X=X=X=X=X=X=X=X=X=X=X=X=X=X=X=X=X=X=X=X=X=X=X=X=X=X=X=X=X=X4 R | 8.6.h =X=X=X=X=X=X=X=X=X=X=X=X=X=X",
"=X=X=X=X=X=X=X=X=X=X=X=X=X=X=X=X=X=X=X=X=X=X=X=X=X=X=X=X=X=X=X=X=X=X=X=X=X=X=X=X=X=X=X=X9 H  .8.E h =X=X=X=X=X=X=X=X=X=X=X=X=X=X",
"=X=X=X=X=X=X=X=X=X=X=X=X=X=X=X=X=X=X=X=X=X=X=X=X=X=X=X=X=X=X=X=X=X=X=X=X=X=X=X=X=X=X=X=X=X* E *.I C =X=X=X=X=X=X=X=X=X=X=X=X=X=X",
"=X=X=X=X=X=X=X=X=X=X=X=X=X=X=X=X=X=X=X=X=X=X=X=X=X=X=X=X=X=X=X=X=X=X=X=X=X=X=X=X=X=X=X=X=X=Xg | I ( =X=X=X=X=X=X=X=X=X=X=X=X=X=X",
"=X=X=X=X=X=X=X=X=X=X=X=X=X=X=X=X=X=X=X=X=X=X=X=X=X=X=X=X=X=X=X=X=X=X=X=X=X=X=X=X=X=X=X=X=X=Xu R 6 =X=X=X=X=X=X=X=X=X=X=X=X=X=X=X",
"=X=X=X=X=X=X=X=X=X=X=X=X=X=X=X=X=X=X=X=X=X=X=X=X=X=X=X=X=X=X=X=X=X=X=X=X=X=X=X=X=X=X=X=X=X=X=Xu 6 =X=X=X=X=X=X=X=X=X=X=X=X=X=X=X"
};
